<svg xmlns="http://www.w3.org/2000/svg" viewBox="0 0 48 48" role="img" aria-hidden="true">
  <defs>
    <linearGradient id="art-palette" x1="0%" y1="0%" x2="100%" y2="100%">
      <stop offset="0%" stop-color="#efebe9"/>
      <stop offset="100%" stop-color="#8d6e63"/>
    </linearGradient>
    <linearGradient id="art-brush-handle" x1="0%" y1="0%" x2="0%" y2="100%">
      <stop offset="0%" stop-color="#a1887f"/>
      <stop offset="100%" stop-color="#5d4037"/>
    </linearGradient>
  </defs>
  <g transform="translate(48 0) scale(-1 1)">
    <path d="M 9 27 C 9 16 18 11 30 12 C 40 14 42 26 38 34 C 33 41 19 42 11 35 C 9 32 9 29 9 27 Z" fill="url(#art-palette)" stroke="#5d4037" stroke-width="1.5"/>
    <circle cx="23" cy="17" r="2.3" fill="#ef5350"/>
    <circle cx="30" cy="19" r="2.9" fill="#ffee58"/>
    <circle cx="33" cy="28" r="2.5" fill="#42a5f5"/>
    <circle cx="25" cy="24" r="2.7" fill="#66bb6a"/>
    <g transform="translate(-2 0) rotate(-38 19 25)">
      <rect x="17.5" y="16" width="3" height="21" rx="1.2" fill="url(#art-brush-handle)" stroke="#4e342e" stroke-width="0.8"/>
      <rect x="17" y="13.4" width="3.5" height="2.6" rx="0.7" fill="#bcaaa4" stroke="#ff8000" stroke-width="0.9"/>
      <path d="M 15.6 6.8 L 21.9 6.8 L 20.4 13.6 L 17.1 13.6 Z" fill="#ef5350" stroke="#ff8000" stroke-width="0.8" stroke-linejoin="round"/>
    </g>
  </g>
</svg>
